<svg id="header-controller" xmlns="http://www.w3.org/2000/svg" xmlns:xlink="http://www.w3.org/1999/xlink" width="509.348" height="239.219" viewBox="0 0 509.348 239.219">
  <defs>
    <clipPath id="clip-path">
      <rect id="Rectangle_7" data-name="Rectangle 7" width="509.348" height="239.219" fill="#260438"/>
    </clipPath>
  </defs>
  <g id="Group_4" data-name="Group 4" clip-path="url(#clip-path)">
    <path id="Path_2" data-name="Path 2" d="M389.093,0H120.253C53.844,0,0,53.543,0,119.609S53.844,239.219,120.253,239.219a120.3,120.3,0,0,0,102.555-57.126h63.73a120.3,120.3,0,0,0,102.555,57.126c66.41,0,120.253-53.543,120.253-119.609S455.5,0,389.093,0M171.238,118.563a19.877,19.877,0,0,1-19.812,19.814H132.738v18.686a19.876,19.876,0,0,1-19.814,19.814h-3.181a19.876,19.876,0,0,1-19.814-19.814V138.377H71.241a19.878,19.878,0,0,1-19.814-19.814V115.38A19.878,19.878,0,0,1,71.241,95.566H89.929V76.88a19.877,19.877,0,0,1,19.814-19.814h3.181A19.877,19.877,0,0,1,132.738,76.88V95.566h18.688a19.877,19.877,0,0,1,19.812,19.814Zm178.127,19.049A20.64,20.64,0,1,1,370,116.971a20.642,20.642,0,0,1-20.64,20.64M389.8,178.629a20.64,20.64,0,1,1,20.64-20.64,20.629,20.629,0,0,1-20.64,20.64m0-82.056a20.64,20.64,0,1,1,20.64-20.64,20.629,20.629,0,0,1-20.64,20.64m41.621,41.038a20.64,20.64,0,1,1,20.64-20.64,20.642,20.642,0,0,1-20.64,20.64" fill="#260438"/>
  </g>
</svg>
