<svg id="services-ba" xmlns="http://www.w3.org/2000/svg" width="128.527" height="135.042" viewBox="0 0 128.527 135.042">
  <path id="Path_22" data-name="Path 22" d="M140.921,131.739C88.428,202.7.035,142.37,49.625,67.373c54.551-72.318,140.363-8.1,91.3,64.366" transform="translate(-27.002 -28.319)" fill="#d46200"/>
  <path id="Path_23" data-name="Path 23" d="M115.039,108.476C99.1,131.082,74.03,142.435,51.951,139.261l.779-4.517a.876.876,0,0,0-1.414-.83l-5.13,4.16C-2.205,125.612,1.929,54.3,41.7,27l3.131,2.966a.876.876,0,0,0,1.472-.754l-.668-4.964C57.909,15.352,75.954,12.961,85.882,13.7c15.678,1.164,30.488,11.631,37.347,25.784l-.693.942c-.655,1.317.729,1.589,1.717,1.209,8.738,19.453,5.949,45.334-9.214,66.843" transform="translate(-10.882 -13.573)" fill="#ffc81c"/>
  <path id="Path_24" data-name="Path 24" d="M131.35,131.106c-39.242,53.855-106.187,6.649-68.646-48.4,39.241-53.853,106.186-6.647,68.646,48.4" transform="translate(-38.102 -43.893)" fill="#e5a900"/>
  <path id="Path_25" data-name="Path 25" d="M136.947,76.967c-36.692-35.336-97.463,26.218-73.619,66.8-41.941-43.155,37.518-122.967,73.619-66.8" transform="translate(-37.944 -42.991)" fill="#d46200"/>
  <path id="Path_26" data-name="Path 26" d="M149.691,121.123c-.106,2.9-5.12,15.466-2.249,17.7l8.621,8.657c2.323,2.333.612,7.006-2.9,7.909-3.029,1.284-15.118,2.372-16.375,6.142l-6.648,13c-1.792,3.5-6.273,3.977-7.584.8l-4.865-11.779a3.364,3.364,0,0,0-3.007-2.12l-12.728-.624c-3.43-.168-4.489-4.549-1.792-7.413,12.907-14.1,12.328-8.7,10.291-28.116-.328-3.606,3.5-6.788,6.477-5.384l11.05,5.21c3.006,1.967,13.312-7.034,15.911-8.063,3.227-2.061,6.651.353,5.795,4.085" transform="translate(-69.479 -82.151)" fill="#ffc81c"/>
  <path id="Path_27" data-name="Path 27" d="M125.23,387.968q-2.121-.617-4.178-1.432l-3.932-7.071,5.13-4.16a.876.876,0,0,1,1.414.83l-.779,4.516Z" transform="translate(-81.816 -254.964)" fill="#d46200"/>
  <path id="Path_28" data-name="Path 28" d="M358.232,103.774l-9.982-8.193c-.989.381-2.372.108-1.717-1.209,5.261,2.1,9.964,4.313,11.7,9.4" transform="translate(-234.878 -67.521)" fill="#d46200"/>
</svg>
