<svg id="services-gd" xmlns="http://www.w3.org/2000/svg" width="103.532" height="132.143" viewBox="0 0 103.532 132.143">
  <path id="Path_63" data-name="Path 63" d="M734.037,856.567a6.055,6.055,0,0,1-4.7-2.785c-21.547-28.033-1.476-86.4,12.147-83.168,6.78,2.469,25.176,8.783,31.693,11.131.439-1.446,27.059,23.767,27.942,24.181,9.567,10.068-32.184,56.162-67.079,50.641" transform="translate(-719.857 -724.885)" fill="#f1ecce"/>
  <path id="Path_64" data-name="Path 64" d="M894.25,730.847l-6.745-3.993c-.536,1.357-14.419,27.971-14.419,27.971l9.375,5.551s16.66-24.969,17.593-26.092Z" transform="translate(-822.167 -695.753)" fill="#633a74"/>
  <path id="Path_65" data-name="Path 65" d="M884.778,725.238l-6.745-3.994c-.536,1.357-14.419,27.971-14.419,27.971l9.375,5.551s16.66-24.969,17.593-26.092Z" transform="translate(-815.842 -692.007)" fill="#7c4992"/>
  <path id="Path_66" data-name="Path 66" d="M931.521,660.689c-39.145-20.806-28.232-28.328-46.569,2.4a3.94,3.94,0,0,0,1.007,5.454c39.146,20.805,28.232,28.327,46.569-2.4a3.939,3.939,0,0,0-1.008-5.454m-13.829,12.745a3.941,3.941,0,0,1-5.267,1.738l-14.712-8.711c-4.106-2.374.622-7.96,2.077-10.662a3.939,3.939,0,0,1,5.266-1.738l14.712,8.712c4.106,2.374-.621,7.96-2.075,10.661" transform="translate(-829.652 -639.442)" fill="#7f2555"/>
  <path id="Path_67" data-name="Path 67" d="M915.9,651.436c-39.145-20.805-28.232-28.327-46.569,2.4a3.94,3.94,0,0,0,1.007,5.454c39.146,20.805,28.232,28.327,46.569-2.4a3.94,3.94,0,0,0-1.007-5.454m-13.829,12.746a3.94,3.94,0,0,1-5.267,1.738l-14.712-8.712c-4.106-2.374.622-7.96,2.076-10.661a3.939,3.939,0,0,1,5.266-1.738l14.712,8.712c4.106,2.374-.622,7.96-2.076,10.661" transform="translate(-819.219 -633.265)" fill="#9c4518"/>
  <path id="Path_68" data-name="Path 68" d="M754.42,879.071a6.065,6.065,0,0,1-4.033-1.916l43.17-72.907c.422-1.425,27.1,23.782,27.942,24.181,9.617,9.959-32.183,56.2-67.078,50.641" transform="translate(-740.242 -747.389)" fill="#dad8ca"/>
  <path id="Path_69" data-name="Path 69" d="M838.395,786.986,821.4,819.664a3.384,3.384,0,0,0,5.737,3.478l21.28-30.222Z" transform="translate(-787.433 -735.902)" fill="#7c4992"/>
</svg>
