<svg id="services-md" xmlns="http://www.w3.org/2000/svg" xmlns:xlink="http://www.w3.org/1999/xlink" width="134.281" height="125.851" viewBox="0 0 134.281 125.851">
  <defs>
    <clipPath id="clip-path">
      <rect id="Rectangle_15" data-name="Rectangle 15" width="60.551" height="94.222" fill="none"/>
    </clipPath>
    <clipPath id="clip-path-2">
      <rect id="Rectangle_16" data-name="Rectangle 16" width="89.126" height="125.699" fill="none"/>
    </clipPath>
    <clipPath id="clip-path-3">
      <rect id="Rectangle_17" data-name="Rectangle 17" width="117.965" height="87.6" fill="none"/>
    </clipPath>
  </defs>
  <path id="Path_70" data-name="Path 70" d="M1447.692,684.827c-15.809,23.818-46.916,71.642-62.315,94.9a4.784,4.784,0,0,1-8.02,0l-1.772-2.7-60.542-92.2a4.884,4.884,0,0,1,.29-5.751c3.833-4.572,11.414-14.128,15.193-18.669,1.454-1.678,3.064-4.393,5.657-4.159h90.37a4.789,4.789,0,0,1,3.72,1.777l17.13,21.052a4.884,4.884,0,0,1,.29,5.751" transform="translate(-1314.242 -656.047)" fill="#d8f"/>
  <path id="Path_71" data-name="Path 71" d="M1620.3,681.226l-42.874,7.082c-.473-2.64-5.513-30.777-5.812-32.433,2.908.668,29.171-1.758,30.5,1.774.489.949,19.521,22.945,18.183,23.577" transform="translate(-1486.083 -655.675)" fill="#d8f"/>
  <path id="Path_72" data-name="Path 72" d="M1405.637,688.345h-48.43c-9.139-1.513-34.078-5.623-42.874-7.082-.287-2.009,8.454-11.195,9.452-12.843,1.434-1.763,7.426-9.123,8.731-10.733-2.082-3.428,66.46-1.178,67.309-1.775.279,1.542,5.362,29.924,5.812,32.433" transform="translate(-1314.298 -655.712)" fill="#e4d9e9"/>
  <path id="Path_73" data-name="Path 73" d="M1375.585,827.991l-60.542-92.2a4.822,4.822,0,0,1-.765-3.227c8.724,1.443,33.8,5.582,42.875,7.079,3.7,17.73,14.922,71.5,18.432,88.344" transform="translate(-1314.242 -707.015)" fill="#caa2e5"/>
  <g id="Group_23" data-name="Group 23" transform="translate(73.697 25.553)" opacity="0.67">
    <g id="Group_22" data-name="Group 22">
      <g id="Group_21" data-name="Group 21" clip-path="url(#clip-path)">
        <path id="Path_74" data-name="Path 74" d="M1595.763,735.8l-44.323,67.5h0c-2.4,3.659-13.257,20.2-15.425,23.493,3.19-15.774,14.265-70.46,17.643-87.143,8.748-1.445,34.541-5.7,42.875-7.079a4.821,4.821,0,0,1-.765,3.227" transform="translate(-1536.01 -732.568)" fill="#8e0bc8"/>
      </g>
    </g>
  </g>
  <path id="Path_75" data-name="Path 75" d="M1491.794,688.708c-12.071-.089-36.362-.089-48.43,0,.473-2.64,5.513-30.777,5.812-32.433h36.805c.279,1.542,5.362,29.924,5.812,32.433" transform="translate(-1400.454 -656.076)" fill="#caa2e5"/>
  <g id="Group_26" data-name="Group 26" transform="translate(0 0.152)" opacity="0.39">
    <g id="Group_25" data-name="Group 25">
      <g id="Group_24" data-name="Group 24" clip-path="url(#clip-path-2)">
        <path id="Path_76" data-name="Path 76" d="M1403.369,752.262c-2.348,3.576-13.3,20.26-15.43,23.493l-2.562,3.9a4.784,4.784,0,0,1-8.02,0l-1.773-2.7-60.542-92.2a4.884,4.884,0,0,1,.291-5.751c3.8-4.563,11.441-14.135,15.192-18.67,3.283-4.648,4.49-4.246,9.86-4.16-.921,7.705-12.884,19.6-12.577,27.589-2.366,1.775,32.819,59.312,33.721,61.97a12.238,12.238,0,0,0,10.607,6.181c1.464.107,30.6-.32,31.233.342" transform="translate(-1314.242 -656.133)" fill="#8e0bc8"/>
      </g>
    </g>
  </g>
  <g id="Group_29" data-name="Group 29" transform="translate(16.283 0.147)" opacity="0.51">
    <g id="Group_28" data-name="Group 28">
      <g id="Group_27" data-name="Group 27" clip-path="url(#clip-path-3)">
        <path id="Path_77" data-name="Path 77" d="M1480.406,684.751l-38.72,58.968c-.922-6.49,28.086-53.632,26.971-60.13.37-3.809-13.38-17.309-15.26-20.325,1.017-6.076-87.233-1.682-90.158-2.934,1.483-1.73,3.044-4.356,5.657-4.159h90.37c3.526-1.267,18.572,21.117,20.85,22.829a4.886,4.886,0,0,1,.29,5.752" transform="translate(-1363.239 -656.118)" fill="#e4d9e9"/>
      </g>
    </g>
  </g>
</svg>
