<svg id="spaceinvader" xmlns="http://www.w3.org/2000/svg" width="542.378" height="524.048" viewBox="0 0 542.378 524.048">
  <rect id="Rectangle_25" data-name="Rectangle 25" width="28.546" height="28.546" transform="translate(114.185)" fill="#260438"/>
  <rect id="Rectangle_26" data-name="Rectangle 26" width="28.546" height="28.546" transform="translate(142.731)" fill="#260438"/>
  <rect id="Rectangle_27" data-name="Rectangle 27" width="28.546" height="28.546" transform="translate(171.277)" fill="#260438"/>
  <rect id="Rectangle_28" data-name="Rectangle 28" width="28.546" height="28.546" transform="translate(199.824)" fill="#260438"/>
  <rect id="Rectangle_29" data-name="Rectangle 29" width="28.546" height="28.546" transform="translate(314.008)" fill="#260438"/>
  <rect id="Rectangle_30" data-name="Rectangle 30" width="28.546" height="28.546" transform="translate(342.555)" fill="#260438"/>
  <rect id="Rectangle_31" data-name="Rectangle 31" width="28.546" height="28.546" transform="translate(371.101)" fill="#260438"/>
  <rect id="Rectangle_32" data-name="Rectangle 32" width="28.546" height="28.546" transform="translate(399.647)" fill="#260438"/>
  <rect id="Rectangle_33" data-name="Rectangle 33" width="28.546" height="28.546" transform="translate(114.185 27.528)" fill="#260438"/>
  <rect id="Rectangle_34" data-name="Rectangle 34" width="28.546" height="28.546" transform="translate(142.731 27.528)" fill="#260438"/>
  <rect id="Rectangle_35" data-name="Rectangle 35" width="28.546" height="28.546" transform="translate(171.277 27.528)" fill="#260438"/>
  <rect id="Rectangle_36" data-name="Rectangle 36" width="28.546" height="28.546" transform="translate(199.824 27.528)" fill="#260438"/>
  <rect id="Rectangle_37" data-name="Rectangle 37" width="28.546" height="28.546" transform="translate(314.009 27.528)" fill="#260438"/>
  <rect id="Rectangle_38" data-name="Rectangle 38" width="28.546" height="28.546" transform="translate(342.555 27.528)" fill="#260438"/>
  <rect id="Rectangle_39" data-name="Rectangle 39" width="28.546" height="28.546" transform="translate(371.101 27.528)" fill="#260438"/>
  <rect id="Rectangle_40" data-name="Rectangle 40" width="28.546" height="28.546" transform="translate(399.647 27.528)" fill="#260438"/>
  <rect id="Rectangle_41" data-name="Rectangle 41" width="28.546" height="28.546" transform="translate(171.277 55.056)" fill="#260438"/>
  <rect id="Rectangle_42" data-name="Rectangle 42" width="28.546" height="28.546" transform="translate(199.824 55.056)" fill="#260438"/>
  <rect id="Rectangle_43" data-name="Rectangle 43" width="28.546" height="28.546" transform="translate(228.37 55.056)" fill="#260438"/>
  <rect id="Rectangle_44" data-name="Rectangle 44" width="28.546" height="28.546" transform="translate(256.916 55.056)" fill="#260438"/>
  <rect id="Rectangle_45" data-name="Rectangle 45" width="28.546" height="28.546" transform="translate(285.462 55.056)" fill="#260438"/>
  <rect id="Rectangle_46" data-name="Rectangle 46" width="28.546" height="28.546" transform="translate(314.009 55.056)" fill="#260438"/>
  <rect id="Rectangle_47" data-name="Rectangle 47" width="28.546" height="28.546" transform="translate(342.555 55.056)" fill="#260438"/>
  <rect id="Rectangle_48" data-name="Rectangle 48" width="28.546" height="28.546" transform="translate(171.277 82.583)" fill="#260438"/>
  <rect id="Rectangle_49" data-name="Rectangle 49" width="28.546" height="28.546" transform="translate(199.824 82.583)" fill="#260438"/>
  <rect id="Rectangle_50" data-name="Rectangle 50" width="28.546" height="28.546" transform="translate(228.37 82.583)" fill="#260438"/>
  <rect id="Rectangle_51" data-name="Rectangle 51" width="28.546" height="28.546" transform="translate(256.916 82.583)" fill="#260438"/>
  <rect id="Rectangle_52" data-name="Rectangle 52" width="28.546" height="28.546" transform="translate(285.462 82.583)" fill="#260438"/>
  <rect id="Rectangle_53" data-name="Rectangle 53" width="28.546" height="28.546" transform="translate(314.009 82.583)" fill="#260438"/>
  <rect id="Rectangle_54" data-name="Rectangle 54" width="28.546" height="28.546" transform="translate(342.555 82.583)" fill="#260438"/>
  <rect id="Rectangle_55" data-name="Rectangle 55" width="28.546" height="28.546" transform="translate(114.185 110.111)" fill="#260438"/>
  <rect id="Rectangle_56" data-name="Rectangle 56" width="28.546" height="28.546" transform="translate(142.731 110.111)" fill="#260438"/>
  <rect id="Rectangle_57" data-name="Rectangle 57" width="28.546" height="28.546" transform="translate(171.277 110.111)" fill="#260438"/>
  <rect id="Rectangle_58" data-name="Rectangle 58" width="28.546" height="28.546" transform="translate(199.824 110.111)" fill="#260438"/>
  <rect id="Rectangle_59" data-name="Rectangle 59" width="28.546" height="28.546" transform="translate(228.37 110.111)" fill="#260438"/>
  <rect id="Rectangle_60" data-name="Rectangle 60" width="28.546" height="28.546" transform="translate(256.916 110.111)" fill="#260438"/>
  <rect id="Rectangle_61" data-name="Rectangle 61" width="28.546" height="28.546" transform="translate(285.462 110.111)" fill="#260438"/>
  <rect id="Rectangle_62" data-name="Rectangle 62" width="28.546" height="28.546" transform="translate(314.009 110.111)" fill="#260438"/>
  <rect id="Rectangle_63" data-name="Rectangle 63" width="28.546" height="28.546" transform="translate(342.555 110.111)" fill="#260438"/>
  <rect id="Rectangle_64" data-name="Rectangle 64" width="28.546" height="28.546" transform="translate(371.101 110.111)" fill="#260438"/>
  <rect id="Rectangle_65" data-name="Rectangle 65" width="28.546" height="28.546" transform="translate(399.647 110.111)" fill="#260438"/>
  <rect id="Rectangle_66" data-name="Rectangle 66" width="28.546" height="28.546" transform="translate(114.185 137.639)" fill="#260438"/>
  <rect id="Rectangle_67" data-name="Rectangle 67" width="28.546" height="28.546" transform="translate(142.731 137.639)" fill="#260438"/>
  <rect id="Rectangle_68" data-name="Rectangle 68" width="28.546" height="28.546" transform="translate(171.277 137.639)" fill="#260438"/>
  <rect id="Rectangle_69" data-name="Rectangle 69" width="28.546" height="28.546" transform="translate(199.824 137.639)" fill="#260438"/>
  <rect id="Rectangle_70" data-name="Rectangle 70" width="28.546" height="28.546" transform="translate(228.37 137.639)" fill="#260438"/>
  <rect id="Rectangle_71" data-name="Rectangle 71" width="28.546" height="28.546" transform="translate(256.916 137.639)" fill="#260438"/>
  <rect id="Rectangle_72" data-name="Rectangle 72" width="28.546" height="28.546" transform="translate(285.462 137.639)" fill="#260438"/>
  <rect id="Rectangle_73" data-name="Rectangle 73" width="28.546" height="28.546" transform="translate(314.009 137.639)" fill="#260438"/>
  <rect id="Rectangle_74" data-name="Rectangle 74" width="28.546" height="28.546" transform="translate(342.555 137.639)" fill="#260438"/>
  <rect id="Rectangle_75" data-name="Rectangle 75" width="28.546" height="28.546" transform="translate(371.101 137.639)" fill="#260438"/>
  <rect id="Rectangle_76" data-name="Rectangle 76" width="28.546" height="28.546" transform="translate(399.647 137.639)" fill="#260438"/>
  <rect id="Rectangle_77" data-name="Rectangle 77" width="28.546" height="28.546" transform="translate(57.092 165.167)" fill="#260438"/>
  <rect id="Rectangle_78" data-name="Rectangle 78" width="28.546" height="28.546" transform="translate(85.639 165.167)" fill="#260438"/>
  <rect id="Rectangle_79" data-name="Rectangle 79" width="28.546" height="28.546" transform="translate(114.185 165.167)" fill="#260438"/>
  <rect id="Rectangle_80" data-name="Rectangle 80" width="28.546" height="28.546" transform="translate(142.731 165.167)" fill="#260438"/>
  <rect id="Rectangle_81" data-name="Rectangle 81" width="28.546" height="28.546" transform="translate(199.824 165.167)" fill="#260438"/>
  <rect id="Rectangle_82" data-name="Rectangle 82" width="28.546" height="28.546" transform="translate(228.37 165.167)" fill="#260438"/>
  <rect id="Rectangle_83" data-name="Rectangle 83" width="28.546" height="28.546" transform="translate(256.916 165.167)" fill="#260438"/>
  <rect id="Rectangle_84" data-name="Rectangle 84" width="28.546" height="28.546" transform="translate(285.462 165.167)" fill="#260438"/>
  <rect id="Rectangle_85" data-name="Rectangle 85" width="28.546" height="28.546" transform="translate(314.009 165.167)" fill="#260438"/>
  <rect id="Rectangle_86" data-name="Rectangle 86" width="28.546" height="28.546" transform="translate(371.101 165.167)" fill="#260438"/>
  <rect id="Rectangle_87" data-name="Rectangle 87" width="28.546" height="28.546" transform="translate(399.647 165.167)" fill="#260438"/>
  <rect id="Rectangle_88" data-name="Rectangle 88" width="28.546" height="28.546" transform="translate(428.193 165.167)" fill="#260438"/>
  <rect id="Rectangle_89" data-name="Rectangle 89" width="28.546" height="28.546" transform="translate(456.739 165.167)" fill="#260438"/>
  <rect id="Rectangle_90" data-name="Rectangle 90" width="28.546" height="28.546" transform="translate(57.092 192.695)" fill="#260438"/>
  <rect id="Rectangle_91" data-name="Rectangle 91" width="28.546" height="28.546" transform="translate(85.639 192.695)" fill="#260438"/>
  <rect id="Rectangle_92" data-name="Rectangle 92" width="28.546" height="28.546" transform="translate(114.185 192.695)" fill="#260438"/>
  <rect id="Rectangle_93" data-name="Rectangle 93" width="28.546" height="28.546" transform="translate(142.731 192.695)" fill="#260438"/>
  <rect id="Rectangle_94" data-name="Rectangle 94" width="28.546" height="28.546" transform="translate(228.37 192.695)" fill="#260438"/>
  <rect id="Rectangle_95" data-name="Rectangle 95" width="28.546" height="28.546" transform="translate(256.916 192.695)" fill="#260438"/>
  <rect id="Rectangle_96" data-name="Rectangle 96" width="28.546" height="28.546" transform="translate(285.462 192.695)" fill="#260438"/>
  <rect id="Rectangle_97" data-name="Rectangle 97" width="28.546" height="28.546" transform="translate(371.101 192.695)" fill="#260438"/>
  <rect id="Rectangle_98" data-name="Rectangle 98" width="28.546" height="28.546" transform="translate(399.647 192.695)" fill="#260438"/>
  <rect id="Rectangle_99" data-name="Rectangle 99" width="28.546" height="28.546" transform="translate(428.193 192.695)" fill="#260438"/>
  <rect id="Rectangle_100" data-name="Rectangle 100" width="28.546" height="28.546" transform="translate(456.739 192.695)" fill="#260438"/>
  <rect id="Rectangle_101" data-name="Rectangle 101" width="28.546" height="28.546" transform="translate(0 220.223)" fill="#260438"/>
  <rect id="Rectangle_102" data-name="Rectangle 102" width="28.546" height="28.546" transform="translate(28.546 220.223)" fill="#260438"/>
  <rect id="Rectangle_103" data-name="Rectangle 103" width="28.546" height="28.546" transform="translate(57.092 220.223)" fill="#260438"/>
  <rect id="Rectangle_104" data-name="Rectangle 104" width="28.546" height="28.546" transform="translate(85.639 220.223)" fill="#260438"/>
  <rect id="Rectangle_105" data-name="Rectangle 105" width="28.546" height="28.546" transform="translate(114.185 220.223)" fill="#260438"/>
  <rect id="Rectangle_106" data-name="Rectangle 106" width="28.546" height="28.546" transform="translate(142.731 220.223)" fill="#260438"/>
  <rect id="Rectangle_107" data-name="Rectangle 107" width="28.546" height="28.546" transform="translate(256.916 220.223)" fill="#260438"/>
  <rect id="Rectangle_108" data-name="Rectangle 108" width="28.546" height="28.546" transform="translate(371.101 220.223)" fill="#260438"/>
  <rect id="Rectangle_109" data-name="Rectangle 109" width="28.546" height="28.546" transform="translate(399.647 220.223)" fill="#260438"/>
  <rect id="Rectangle_110" data-name="Rectangle 110" width="28.546" height="28.546" transform="translate(428.193 220.223)" fill="#260438"/>
  <rect id="Rectangle_111" data-name="Rectangle 111" width="28.546" height="28.546" transform="translate(456.739 220.223)" fill="#260438"/>
  <rect id="Rectangle_112" data-name="Rectangle 112" width="28.546" height="28.546" transform="translate(485.286 220.223)" fill="#260438"/>
  <rect id="Rectangle_113" data-name="Rectangle 113" width="28.546" height="28.546" transform="translate(513.832 220.223)" fill="#260438"/>
  <rect id="Rectangle_114" data-name="Rectangle 114" width="28.546" height="28.546" transform="translate(0 247.751)" fill="#260438"/>
  <rect id="Rectangle_115" data-name="Rectangle 115" width="28.546" height="28.546" transform="translate(28.546 247.751)" fill="#260438"/>
  <rect id="Rectangle_116" data-name="Rectangle 116" width="28.546" height="28.546" transform="translate(57.092 247.751)" fill="#260438"/>
  <rect id="Rectangle_117" data-name="Rectangle 117" width="28.546" height="28.546" transform="translate(85.639 247.751)" fill="#260438"/>
  <rect id="Rectangle_118" data-name="Rectangle 118" width="28.546" height="28.546" transform="translate(114.185 247.751)" fill="#260438"/>
  <rect id="Rectangle_119" data-name="Rectangle 119" width="28.546" height="28.546" transform="translate(142.731 247.751)" fill="#260438"/>
  <rect id="Rectangle_120" data-name="Rectangle 120" width="28.546" height="28.546" transform="translate(171.277 247.751)" fill="#260438"/>
  <rect id="Rectangle_121" data-name="Rectangle 121" width="28.546" height="28.546" transform="translate(199.824 247.751)" fill="#260438"/>
  <rect id="Rectangle_122" data-name="Rectangle 122" width="28.546" height="28.546" transform="translate(228.37 247.751)" fill="#260438"/>
  <rect id="Rectangle_123" data-name="Rectangle 123" width="28.546" height="28.546" transform="translate(256.916 247.751)" fill="#260438"/>
  <rect id="Rectangle_124" data-name="Rectangle 124" width="28.546" height="28.546" transform="translate(285.462 247.751)" fill="#260438"/>
  <rect id="Rectangle_125" data-name="Rectangle 125" width="28.546" height="28.546" transform="translate(314.009 247.751)" fill="#260438"/>
  <rect id="Rectangle_126" data-name="Rectangle 126" width="28.546" height="28.546" transform="translate(342.555 247.751)" fill="#260438"/>
  <rect id="Rectangle_127" data-name="Rectangle 127" width="28.546" height="28.546" transform="translate(371.101 247.751)" fill="#260438"/>
  <rect id="Rectangle_128" data-name="Rectangle 128" width="28.546" height="28.546" transform="translate(399.647 247.751)" fill="#260438"/>
  <rect id="Rectangle_129" data-name="Rectangle 129" width="28.546" height="28.546" transform="translate(428.193 247.751)" fill="#260438"/>
  <rect id="Rectangle_130" data-name="Rectangle 130" width="28.546" height="28.546" transform="translate(456.739 247.751)" fill="#260438"/>
  <rect id="Rectangle_131" data-name="Rectangle 131" width="28.546" height="28.546" transform="translate(485.286 247.751)" fill="#260438"/>
  <rect id="Rectangle_132" data-name="Rectangle 132" width="28.546" height="28.546" transform="translate(513.832 247.751)" fill="#260438"/>
  <rect id="Rectangle_133" data-name="Rectangle 133" width="28.546" height="28.546" transform="translate(0 275.279)" fill="#260438"/>
  <rect id="Rectangle_134" data-name="Rectangle 134" width="28.546" height="28.546" transform="translate(28.546 275.279)" fill="#260438"/>
  <rect id="Rectangle_135" data-name="Rectangle 135" width="28.546" height="28.546" transform="translate(57.092 275.279)" fill="#260438"/>
  <rect id="Rectangle_136" data-name="Rectangle 136" width="28.546" height="28.546" transform="translate(85.639 275.279)" fill="#260438"/>
  <rect id="Rectangle_137" data-name="Rectangle 137" width="28.546" height="28.546" transform="translate(114.185 275.279)" fill="#260438"/>
  <rect id="Rectangle_138" data-name="Rectangle 138" width="28.546" height="28.546" transform="translate(142.731 275.279)" fill="#260438"/>
  <rect id="Rectangle_139" data-name="Rectangle 139" width="28.546" height="28.546" transform="translate(171.277 275.279)" fill="#260438"/>
  <rect id="Rectangle_140" data-name="Rectangle 140" width="28.546" height="28.546" transform="translate(199.824 275.279)" fill="#260438"/>
  <rect id="Rectangle_141" data-name="Rectangle 141" width="28.546" height="28.546" transform="translate(228.37 275.279)" fill="#260438"/>
  <rect id="Rectangle_142" data-name="Rectangle 142" width="28.546" height="28.546" transform="translate(256.916 275.279)" fill="#260438"/>
  <rect id="Rectangle_143" data-name="Rectangle 143" width="28.546" height="28.546" transform="translate(285.462 275.279)" fill="#260438"/>
  <rect id="Rectangle_144" data-name="Rectangle 144" width="28.546" height="28.546" transform="translate(314.009 275.279)" fill="#260438"/>
  <rect id="Rectangle_145" data-name="Rectangle 145" width="28.546" height="28.546" transform="translate(342.555 275.279)" fill="#260438"/>
  <rect id="Rectangle_146" data-name="Rectangle 146" width="28.546" height="28.546" transform="translate(371.101 275.279)" fill="#260438"/>
  <rect id="Rectangle_147" data-name="Rectangle 147" width="28.546" height="28.546" transform="translate(399.647 275.279)" fill="#260438"/>
  <rect id="Rectangle_148" data-name="Rectangle 148" width="28.546" height="28.546" transform="translate(428.193 275.279)" fill="#260438"/>
  <rect id="Rectangle_149" data-name="Rectangle 149" width="28.546" height="28.546" transform="translate(456.739 275.279)" fill="#260438"/>
  <rect id="Rectangle_150" data-name="Rectangle 150" width="28.546" height="28.546" transform="translate(485.286 275.279)" fill="#260438"/>
  <rect id="Rectangle_151" data-name="Rectangle 151" width="28.546" height="28.546" transform="translate(513.832 275.279)" fill="#260438"/>
  <rect id="Rectangle_152" data-name="Rectangle 152" width="28.546" height="28.546" transform="translate(0 302.807)" fill="#260438"/>
  <rect id="Rectangle_153" data-name="Rectangle 153" width="28.546" height="28.546" transform="translate(28.546 302.807)" fill="#260438"/>
  <rect id="Rectangle_154" data-name="Rectangle 154" width="28.546" height="28.546" transform="translate(57.092 302.807)" fill="#260438"/>
  <rect id="Rectangle_155" data-name="Rectangle 155" width="28.546" height="28.546" transform="translate(85.639 302.807)" fill="#260438"/>
  <rect id="Rectangle_156" data-name="Rectangle 156" width="28.546" height="28.546" transform="translate(114.185 302.807)" fill="#260438"/>
  <rect id="Rectangle_157" data-name="Rectangle 157" width="28.546" height="28.546" transform="translate(142.731 302.807)" fill="#260438"/>
  <rect id="Rectangle_158" data-name="Rectangle 158" width="28.546" height="28.546" transform="translate(171.277 302.807)" fill="#260438"/>
  <rect id="Rectangle_159" data-name="Rectangle 159" width="28.546" height="28.546" transform="translate(199.824 302.807)" fill="#260438"/>
  <rect id="Rectangle_160" data-name="Rectangle 160" width="28.546" height="28.546" transform="translate(228.37 302.807)" fill="#260438"/>
  <rect id="Rectangle_161" data-name="Rectangle 161" width="28.546" height="28.546" transform="translate(256.916 302.807)" fill="#260438"/>
  <rect id="Rectangle_162" data-name="Rectangle 162" width="28.546" height="28.546" transform="translate(285.462 302.807)" fill="#260438"/>
  <rect id="Rectangle_163" data-name="Rectangle 163" width="28.546" height="28.546" transform="translate(314.009 302.807)" fill="#260438"/>
  <rect id="Rectangle_164" data-name="Rectangle 164" width="28.546" height="28.546" transform="translate(342.555 302.807)" fill="#260438"/>
  <rect id="Rectangle_165" data-name="Rectangle 165" width="28.546" height="28.546" transform="translate(371.101 302.807)" fill="#260438"/>
  <rect id="Rectangle_166" data-name="Rectangle 166" width="28.546" height="28.546" transform="translate(399.647 302.807)" fill="#260438"/>
  <rect id="Rectangle_167" data-name="Rectangle 167" width="28.546" height="28.546" transform="translate(428.193 302.807)" fill="#260438"/>
  <rect id="Rectangle_168" data-name="Rectangle 168" width="28.546" height="28.546" transform="translate(456.739 302.807)" fill="#260438"/>
  <rect id="Rectangle_169" data-name="Rectangle 169" width="28.546" height="28.546" transform="translate(485.286 302.807)" fill="#260438"/>
  <rect id="Rectangle_170" data-name="Rectangle 170" width="28.546" height="28.546" transform="translate(513.832 302.807)" fill="#260438"/>
  <rect id="Rectangle_171" data-name="Rectangle 171" width="28.546" height="28.546" transform="translate(0 330.334)" fill="#260438"/>
  <rect id="Rectangle_172" data-name="Rectangle 172" width="28.546" height="28.546" transform="translate(28.546 330.334)" fill="#260438"/>
  <rect id="Rectangle_173" data-name="Rectangle 173" width="28.546" height="28.546" transform="translate(114.185 330.334)" fill="#260438"/>
  <rect id="Rectangle_174" data-name="Rectangle 174" width="28.546" height="28.546" transform="translate(142.731 330.334)" fill="#260438"/>
  <rect id="Rectangle_175" data-name="Rectangle 175" width="28.546" height="28.546" transform="translate(199.824 330.334)" fill="#260438"/>
  <rect id="Rectangle_176" data-name="Rectangle 176" width="28.546" height="28.546" transform="translate(228.37 330.334)" fill="#260438"/>
  <rect id="Rectangle_177" data-name="Rectangle 177" width="28.546" height="28.546" transform="translate(256.916 330.334)" fill="#260438"/>
  <rect id="Rectangle_178" data-name="Rectangle 178" width="28.546" height="28.546" transform="translate(285.462 330.334)" fill="#260438"/>
  <rect id="Rectangle_179" data-name="Rectangle 179" width="28.546" height="28.546" transform="translate(314.009 330.334)" fill="#260438"/>
  <rect id="Rectangle_180" data-name="Rectangle 180" width="28.546" height="28.546" transform="translate(371.101 330.334)" fill="#260438"/>
  <rect id="Rectangle_181" data-name="Rectangle 181" width="28.546" height="28.546" transform="translate(399.647 330.334)" fill="#260438"/>
  <rect id="Rectangle_182" data-name="Rectangle 182" width="28.546" height="28.546" transform="translate(485.286 330.334)" fill="#260438"/>
  <rect id="Rectangle_183" data-name="Rectangle 183" width="28.546" height="28.546" transform="translate(513.832 330.334)" fill="#260438"/>
  <rect id="Rectangle_184" data-name="Rectangle 184" width="28.546" height="28.546" transform="translate(0 357.862)" fill="#260438"/>
  <rect id="Rectangle_185" data-name="Rectangle 185" width="28.546" height="28.546" transform="translate(28.546 357.862)" fill="#260438"/>
  <rect id="Rectangle_186" data-name="Rectangle 186" width="28.546" height="28.546" transform="translate(114.185 357.862)" fill="#260438"/>
  <rect id="Rectangle_187" data-name="Rectangle 187" width="28.546" height="28.546" transform="translate(142.731 357.862)" fill="#260438"/>
  <rect id="Rectangle_188" data-name="Rectangle 188" width="28.546" height="28.546" transform="translate(371.101 357.862)" fill="#260438"/>
  <rect id="Rectangle_189" data-name="Rectangle 189" width="28.546" height="28.546" transform="translate(399.647 357.862)" fill="#260438"/>
  <rect id="Rectangle_190" data-name="Rectangle 190" width="28.546" height="28.546" transform="translate(485.286 357.862)" fill="#260438"/>
  <rect id="Rectangle_191" data-name="Rectangle 191" width="28.546" height="28.546" transform="translate(513.832 357.862)" fill="#260438"/>
  <rect id="Rectangle_192" data-name="Rectangle 192" width="28.546" height="28.546" transform="translate(0 385.39)" fill="#260438"/>
  <rect id="Rectangle_193" data-name="Rectangle 193" width="28.546" height="28.546" transform="translate(28.546 385.39)" fill="#260438"/>
  <rect id="Rectangle_194" data-name="Rectangle 194" width="28.546" height="28.546" transform="translate(114.185 385.39)" fill="#260438"/>
  <rect id="Rectangle_195" data-name="Rectangle 195" width="28.546" height="28.546" transform="translate(142.731 385.39)" fill="#260438"/>
  <rect id="Rectangle_196" data-name="Rectangle 196" width="28.546" height="28.546" transform="translate(171.277 385.39)" fill="#260438"/>
  <rect id="Rectangle_197" data-name="Rectangle 197" width="28.546" height="28.546" transform="translate(342.555 385.39)" fill="#260438"/>
  <rect id="Rectangle_198" data-name="Rectangle 198" width="28.546" height="28.546" transform="translate(371.101 385.39)" fill="#260438"/>
  <rect id="Rectangle_199" data-name="Rectangle 199" width="28.546" height="28.546" transform="translate(399.647 385.39)" fill="#260438"/>
  <rect id="Rectangle_200" data-name="Rectangle 200" width="28.546" height="28.546" transform="translate(485.286 385.39)" fill="#260438"/>
  <rect id="Rectangle_201" data-name="Rectangle 201" width="28.546" height="28.546" transform="translate(513.832 385.39)" fill="#260438"/>
  <rect id="Rectangle_202" data-name="Rectangle 202" width="28.546" height="28.546" transform="translate(0 412.918)" fill="#260438"/>
  <rect id="Rectangle_203" data-name="Rectangle 203" width="28.546" height="28.546" transform="translate(28.546 412.918)" fill="#260438"/>
  <rect id="Rectangle_204" data-name="Rectangle 204" width="28.546" height="28.546" transform="translate(114.185 412.918)" fill="#260438"/>
  <rect id="Rectangle_205" data-name="Rectangle 205" width="28.546" height="28.546" transform="translate(142.731 412.918)" fill="#260438"/>
  <rect id="Rectangle_206" data-name="Rectangle 206" width="28.546" height="28.546" transform="translate(171.277 412.918)" fill="#260438"/>
  <rect id="Rectangle_207" data-name="Rectangle 207" width="28.546" height="28.546" transform="translate(199.824 412.918)" fill="#260438"/>
  <rect id="Rectangle_208" data-name="Rectangle 208" width="28.546" height="28.546" transform="translate(228.37 412.918)" fill="#260438"/>
  <rect id="Rectangle_209" data-name="Rectangle 209" width="28.546" height="28.546" transform="translate(256.916 412.918)" fill="#260438"/>
  <rect id="Rectangle_210" data-name="Rectangle 210" width="28.546" height="28.546" transform="translate(285.462 412.918)" fill="#260438"/>
  <rect id="Rectangle_211" data-name="Rectangle 211" width="28.546" height="28.546" transform="translate(314.009 412.918)" fill="#260438"/>
  <rect id="Rectangle_212" data-name="Rectangle 212" width="28.546" height="28.546" transform="translate(342.555 412.918)" fill="#260438"/>
  <rect id="Rectangle_213" data-name="Rectangle 213" width="28.546" height="28.546" transform="translate(371.101 412.918)" fill="#260438"/>
  <rect id="Rectangle_214" data-name="Rectangle 214" width="28.546" height="28.546" transform="translate(399.647 412.918)" fill="#260438"/>
  <rect id="Rectangle_215" data-name="Rectangle 215" width="28.546" height="28.546" transform="translate(485.286 412.918)" fill="#260438"/>
  <rect id="Rectangle_216" data-name="Rectangle 216" width="28.546" height="28.546" transform="translate(513.832 412.918)" fill="#260438"/>
  <rect id="Rectangle_217" data-name="Rectangle 217" width="28.546" height="28.546" transform="translate(0 440.446)" fill="#260438"/>
  <rect id="Rectangle_218" data-name="Rectangle 218" width="28.546" height="28.546" transform="translate(28.546 440.446)" fill="#260438"/>
  <rect id="Rectangle_219" data-name="Rectangle 219" width="28.546" height="28.546" transform="translate(114.185 440.446)" fill="#260438"/>
  <rect id="Rectangle_220" data-name="Rectangle 220" width="28.546" height="28.546" transform="translate(142.731 440.446)" fill="#260438"/>
  <rect id="Rectangle_221" data-name="Rectangle 221" width="28.546" height="28.546" transform="translate(171.277 440.446)" fill="#260438"/>
  <rect id="Rectangle_222" data-name="Rectangle 222" width="28.546" height="28.546" transform="translate(199.824 440.446)" fill="#260438"/>
  <rect id="Rectangle_223" data-name="Rectangle 223" width="28.546" height="28.546" transform="translate(228.37 440.446)" fill="#260438"/>
  <rect id="Rectangle_224" data-name="Rectangle 224" width="28.546" height="28.546" transform="translate(256.916 440.446)" fill="#260438"/>
  <rect id="Rectangle_225" data-name="Rectangle 225" width="28.546" height="28.546" transform="translate(285.462 440.446)" fill="#260438"/>
  <rect id="Rectangle_226" data-name="Rectangle 226" width="28.546" height="28.546" transform="translate(314.009 440.446)" fill="#260438"/>
  <rect id="Rectangle_227" data-name="Rectangle 227" width="28.546" height="28.546" transform="translate(342.555 440.446)" fill="#260438"/>
  <rect id="Rectangle_228" data-name="Rectangle 228" width="28.546" height="28.546" transform="translate(371.101 440.446)" fill="#260438"/>
  <rect id="Rectangle_229" data-name="Rectangle 229" width="28.546" height="28.546" transform="translate(399.647 440.446)" fill="#260438"/>
  <rect id="Rectangle_230" data-name="Rectangle 230" width="28.546" height="28.546" transform="translate(485.286 440.446)" fill="#260438"/>
  <rect id="Rectangle_231" data-name="Rectangle 231" width="28.546" height="28.546" transform="translate(513.832 440.446)" fill="#260438"/>
  <rect id="Rectangle_232" data-name="Rectangle 232" width="28.546" height="28.546" transform="translate(0 467.974)" fill="#260438"/>
  <rect id="Rectangle_233" data-name="Rectangle 233" width="28.546" height="28.546" transform="translate(28.546 467.974)" fill="#260438"/>
  <rect id="Rectangle_234" data-name="Rectangle 234" width="28.546" height="28.546" transform="translate(114.185 467.974)" fill="#260438"/>
  <rect id="Rectangle_235" data-name="Rectangle 235" width="28.546" height="28.546" transform="translate(142.731 467.974)" fill="#260438"/>
  <rect id="Rectangle_236" data-name="Rectangle 236" width="28.546" height="28.546" transform="translate(171.277 467.974)" fill="#260438"/>
  <rect id="Rectangle_237" data-name="Rectangle 237" width="28.546" height="28.546" transform="translate(199.824 467.974)" fill="#260438"/>
  <rect id="Rectangle_238" data-name="Rectangle 238" width="28.546" height="28.546" transform="translate(228.37 467.974)" fill="#260438"/>
  <rect id="Rectangle_239" data-name="Rectangle 239" width="28.546" height="28.546" transform="translate(256.916 467.974)" fill="#260438"/>
  <rect id="Rectangle_240" data-name="Rectangle 240" width="28.546" height="28.546" transform="translate(285.462 467.974)" fill="#260438"/>
  <rect id="Rectangle_241" data-name="Rectangle 241" width="28.546" height="28.546" transform="translate(314.009 467.974)" fill="#260438"/>
  <rect id="Rectangle_242" data-name="Rectangle 242" width="28.546" height="28.546" transform="translate(342.555 467.974)" fill="#260438"/>
  <rect id="Rectangle_243" data-name="Rectangle 243" width="28.546" height="28.546" transform="translate(371.101 467.974)" fill="#260438"/>
  <rect id="Rectangle_244" data-name="Rectangle 244" width="28.546" height="28.546" transform="translate(399.647 467.974)" fill="#260438"/>
  <rect id="Rectangle_245" data-name="Rectangle 245" width="28.546" height="28.546" transform="translate(485.286 467.974)" fill="#260438"/>
  <rect id="Rectangle_246" data-name="Rectangle 246" width="28.546" height="28.546" transform="translate(513.832 467.974)" fill="#260438"/>
  <rect id="Rectangle_247" data-name="Rectangle 247" width="28.546" height="28.546" transform="translate(0 495.502)" fill="#260438"/>
  <rect id="Rectangle_248" data-name="Rectangle 248" width="28.546" height="28.546" transform="translate(28.546 495.502)" fill="#260438"/>
  <rect id="Rectangle_249" data-name="Rectangle 249" width="28.546" height="28.546" transform="translate(114.185 495.502)" fill="#260438"/>
  <rect id="Rectangle_250" data-name="Rectangle 250" width="28.546" height="28.546" transform="translate(142.731 495.502)" fill="#260438"/>
  <rect id="Rectangle_251" data-name="Rectangle 251" width="28.546" height="28.546" transform="translate(171.277 495.502)" fill="#260438"/>
  <rect id="Rectangle_252" data-name="Rectangle 252" width="28.546" height="28.546" transform="translate(199.824 495.502)" fill="#260438"/>
  <rect id="Rectangle_253" data-name="Rectangle 253" width="28.546" height="28.546" transform="translate(228.37 495.502)" fill="#260438"/>
  <rect id="Rectangle_254" data-name="Rectangle 254" width="28.546" height="28.546" transform="translate(256.916 495.502)" fill="#260438"/>
  <rect id="Rectangle_255" data-name="Rectangle 255" width="28.546" height="28.546" transform="translate(285.462 495.502)" fill="#260438"/>
  <rect id="Rectangle_256" data-name="Rectangle 256" width="28.546" height="28.546" transform="translate(314.008 495.502)" fill="#260438"/>
  <rect id="Rectangle_257" data-name="Rectangle 257" width="28.546" height="28.546" transform="translate(342.555 495.502)" fill="#260438"/>
  <rect id="Rectangle_258" data-name="Rectangle 258" width="28.546" height="28.546" transform="translate(371.101 495.502)" fill="#260438"/>
  <rect id="Rectangle_259" data-name="Rectangle 259" width="28.546" height="28.546" transform="translate(399.647 495.502)" fill="#260438"/>
  <rect id="Rectangle_260" data-name="Rectangle 260" width="28.546" height="28.546" transform="translate(485.286 495.502)" fill="#260438"/>
  <rect id="Rectangle_261" data-name="Rectangle 261" width="28.546" height="28.546" transform="translate(513.832 495.502)" fill="#260438"/>
</svg>
